<?xml version="1.0" standalone="no"?>
<!DOCTYPE svg PUBLIC "-//W3C//DTD SVG 20010904//EN"
 "http://www.w3.org/TR/2001/REC-SVG-20010904/DTD/svg10.dtd">
<svg version="1.0" xmlns="http://www.w3.org/2000/svg"
 width="80.000000pt" height="80.000000pt" viewBox="0 0 80.000000 80.000000"
 preserveAspectRatio="xMidYMid meet">

<g transform="translate(0.000000,80.000000) scale(0.100000,-0.100000)"
fill="#000000" stroke="none">
<path d="M241 785 c-68 -19 -109 -44 -154 -95 -66 -72 -87 -143 -87 -290 0
-158 29 -241 110 -314 78 -70 114 -80 290 -80 137 0 160 2 202 21 96 44 166
131 187 231 14 68 14 216 0 284 -21 103 -102 199 -197 234 -67 24 -278 29
-351 9z m182 -139 c21 -21 24 -32 20 -78 l-4 -53 17 40 c23 53 20 52 50 24 55
-50 85 -166 48 -187 -14 -8 -14 -11 7 -25 23 -17 23 -17 6 -71 -21 -66 -46
-99 -89 -117 -18 -7 -36 -17 -40 -23 -4 -6 -12 -5 -22 3 -13 11 -19 11 -32 0
-10 -8 -18 -9 -22 -3 -4 6 -22 16 -40 23 -43 18 -68 51 -89 117 -17 54 -17 54
6 71 21 14 21 17 7 25 -37 21 -7 137 48 187 30 28 27 29 50 -24 l17 -40 -4 54
c-4 43 0 57 17 76 11 13 22 23 23 24 1 1 13 -10 26 -23z"/>
<path d="M382 458 c-8 -8 -9 -15 -1 -25 9 -9 8 -17 -1 -28 -10 -12 -10 -19 -2
-27 9 -9 9 -15 0 -25 -9 -11 -7 -18 5 -31 16 -15 18 -15 34 0 12 13 14 20 5
31 -9 10 -9 16 0 25 8 8 8 15 -2 27 -10 12 -10 19 -2 27 8 8 9 15 1 25 -14 16
-22 16 -37 1z m28 -13 c0 -8 -4 -15 -10 -15 -5 0 -10 7 -10 15 0 8 5 15 10 15
6 0 10 -7 10 -15z m0 -55 c0 -5 -4 -10 -10 -10 -5 0 -10 5 -10 10 0 6 5 10 10
10 6 0 10 -4 10 -10z m0 -50 c0 -5 -4 -10 -10 -10 -5 0 -10 5 -10 10 0 6 5 10
10 10 6 0 10 -4 10 -10z"/>
<path d="M280 320 c0 -32 55 -90 85 -90 16 0 0 36 -26 58 -44 37 -59 45 -59
32z"/>
<path d="M472 298 c-23 -18 -41 -41 -41 -50 -1 -21 1 -21 33 -7 24 11 65 73
54 84 -3 3 -24 -9 -46 -27z"/>
</g>
</svg>
